<?xml version="1.0" encoding="utf-8"?>
<!-- Generator: Adobe Illustrator 16.0.0, SVG Export Plug-In . SVG Version: 6.00 Build 0)  -->
<!DOCTYPE svg PUBLIC "-//W3C//DTD SVG 1.1//EN" "http://www.w3.org/Graphics/SVG/1.1/DTD/svg11.dtd">
<svg version="1.1" id="Layer_1" xmlns="http://www.w3.org/2000/svg" xmlns:xlink="http://www.w3.org/1999/xlink" x="0px" y="0px"
	 width="56.693px" height="56.693px" viewBox="0 0 56.693 56.693" enable-background="new 0 0 56.693 56.693" xml:space="preserve">
<g>
	<path fill="#767676" d="M23.556,29.975c0,0,4.7-0.351,4.7-5.863c0-5.514-3.846-8.206-8.719-8.206h-8.97h-0.263H3.503v30.815h6.803
		h0.263h8.97c0,0,9.788,0.309,9.788-9.097C29.325,37.625,29.753,29.975,23.556,29.975z M10.568,21.383h7.814h1.154
		c0,0,2.18,0,2.18,3.205c0,3.207-1.282,3.672-2.735,3.672h-8.414L10.568,21.383L10.568,21.383z M19.084,41.244
		c-0.236,0.006-0.438,0-0.572,0h-7.943V33.01h8.97c0,0,3.249-0.043,3.249,4.23C22.786,40.846,20.36,41.217,19.084,41.244z"/>
	<path fill="#767676" d="M42.382,23.746c-11.85,0-11.84,11.84-11.84,11.84s-0.812,11.779,11.84,11.779
		c0,0,10.546,0.602,10.546-8.195h-5.425c0,0,0.181,3.314-4.94,3.314c0,0-5.422,0.361-5.422-5.363h15.967
		C53.106,37.121,54.854,23.746,42.382,23.746z M37.079,33.01c0,0,0.662-4.75,5.422-4.75c4.763,0,4.699,4.75,4.699,4.75H37.079z"/>
	<rect x="35.753" y="17.721" fill="#767676" width="12.711" height="3.795"/>
</g>
</svg>
