<?xml version="1.0" encoding="utf-8"?>
<!-- Generator: Adobe Illustrator 16.0.0, SVG Export Plug-In . SVG Version: 6.00 Build 0)  -->
<!DOCTYPE svg PUBLIC "-//W3C//DTD SVG 1.1//EN" "http://www.w3.org/Graphics/SVG/1.1/DTD/svg11.dtd">
<svg version="1.1" id="Layer_1" xmlns="http://www.w3.org/2000/svg" xmlns:xlink="http://www.w3.org/1999/xlink" x="0px" y="0px"
	 width="512px" height="512px" viewBox="0 0 512 512" enable-background="new 0 0 512 512" xml:space="preserve">
<g>
	<path fill="#767676" d="M409.391,511.359V317.203c0,0-5.75-51.938-56-51.938c-50.219,0-59.406,49.375-59.406,49.375v196.719h-103.5
		l1.688-320.719h100.125l-0.813,40.313c0,0,20.876-52.688,99.531-52.688c78.625,0,114.25,45.188,120.875,129.688
		c0,84.531,0,203.406,0,203.406H409.391z M63.547,145.078c-35.563,0-64.438-25.438-64.438-56.875s28.875-56.938,64.438-56.938
		c35.563,0,64.438,25.5,64.438,56.938S99.109,145.078,63.547,145.078z M127.422,511.734H0.172V191.453l127.25-0.813V511.734z"/>
</g>
</svg>
