<?xml version="1.0" encoding="utf-8"?>
<!-- Generator: Adobe Illustrator 16.0.0, SVG Export Plug-In . SVG Version: 6.00 Build 0)  -->
<!DOCTYPE svg PUBLIC "-//W3C//DTD SVG 1.1//EN" "http://www.w3.org/Graphics/SVG/1.1/DTD/svg11.dtd">
<svg version="1.1" id="Layer_1" xmlns="http://www.w3.org/2000/svg" xmlns:xlink="http://www.w3.org/1999/xlink" x="0px" y="0px"
	 width="212.068px" height="120px" viewBox="0 0 212.068 120" enable-background="new 0 0 212.068 120" xml:space="preserve">
<g>
	<path fill="#FFFFFF" d="M142.071,67.477c-3.195,0-5.699-2.672-5.699-6.082v-5.834h-5.325c-5.486,0-9.948-4.462-9.948-9.952V9.949
		c0-5.486,4.462-9.949,9.948-9.949h54.899c2.659,0,5.156,1.038,7.04,2.919l15.789,17.241c0.264,0.229,0.641,0.647,0.991,1.092
		l0.734,0.789v0.236c1.028,1.668,1.567,3.555,1.567,5.503c0,1.951-0.539,3.835-1.567,5.504v0.209l-0.65,0.728
		c-0.388,0.488-0.799,0.943-1.26,1.361l-15.533,16.982c-1.955,1.961-4.455,2.996-7.111,2.996h-29.3l-10.211,10.025
		C145.219,66.8,143.665,67.477,142.071,67.477z M131.047,4.975c-2.743,0-4.974,2.231-4.974,4.975v35.659
		c0,2.743,2.23,4.978,4.974,4.978h10.303v10.809c0,1.067,0.819,1.422,1.588,0.653l11.674-11.462h31.335
		c1.328,0,2.578-0.519,3.519-1.459l15.617-17.066c0.404-0.381,0.62-0.623,0.822-0.887l0.114-0.138
		c0.701-0.971,1.072-2.093,1.072-3.256c0-1.169-0.374-2.305-1.089-3.279l-0.023-0.026c-0.304-0.374-0.499-0.601-0.715-0.799
		L189.391,6.356c-0.866-0.862-2.116-1.382-3.444-1.382H131.047z"/>
	<g>
		<path fill="#FFFFFF" d="M28.127,68.582H22.54c-0.384,0-0.696,0.313-0.696,0.698v32.066h-9.274c-3.08,0-5.586-2.507-5.586-5.588
			v-4.903v-8.014V69.28c0-0.385-0.313-0.698-0.699-0.698H0.699C0.312,68.582,0,68.896,0,69.28v13.562v8.014v4.903
			c0,6.933,5.638,12.571,12.569,12.571h12.766v-0.027h2.792c0.384,0,0.698-0.313,0.698-0.697V69.28
			C28.825,68.896,28.511,68.582,28.127,68.582z"/>
		<path fill="#FFFFFF" d="M46.823,79.175h-5.274h-1.265h-4.321c-0.386,0-0.699,0.31-0.699,0.697v38.322
			c0,0.388,0.313,0.697,0.699,0.697h5.586c0.386,0,0.698-0.31,0.698-0.697v-9.581h4.577c7.652,0,13.876-6.225,13.876-13.875v-1.686
			C60.699,85.399,54.475,79.175,46.823,79.175z M53.718,94.738c0,3.798-3.096,6.892-6.896,6.892h-4.577V86.158h4.577
			c3.8,0,6.896,3.09,6.896,6.895V94.738z"/>
		<path fill="#FFFFFF" d="M107.19,79.175h-4.322h-1.266H96.33c-7.654,0-13.88,6.225-13.88,13.878v1.686
			c0,7.65,6.226,13.875,13.88,13.875h5.272h1.266h4.322c0.384,0,0.695-0.313,0.695-0.698V79.872
			C107.886,79.484,107.574,79.175,107.19,79.175z M89.433,94.738v-1.686c0-3.805,3.094-6.895,6.897-6.895h4.575v15.472H96.33
			C92.527,101.63,89.433,98.536,89.433,94.738z"/>
		<path fill="#FFFFFF" d="M80.008,101.347h-0.795h-1.164c-3.081,0-5.586-2.507-5.586-5.588v-4.903v-7.293h4.905
			c0.386,0,0.699-0.316,0.699-0.701v-5.587c0-0.385-0.313-0.694-0.699-0.694h-4.905v-7.3c0-0.385-0.312-0.698-0.7-0.698h-5.584
			c-0.388,0-0.699,0.313-0.699,0.698v13.562v8.014v4.903c0,6.818,5.461,12.376,12.237,12.554v0.018h0.332h1.164h0.795
			c0.386,0,0.699-0.313,0.699-0.701v-5.584C80.708,101.657,80.395,101.347,80.008,101.347z"/>
		<path fill="#FFFFFF" d="M137.144,79.175h-4.32h-1.264h-5.277c-7.65,0-13.879,6.225-13.879,13.878v1.686
			c0,7.65,6.229,13.875,13.879,13.875h4.448c-0.546,2.514-2.784,4.404-5.46,4.404h-2.655h-1.854h-3.525
			c-0.388,0-0.701,0.311-0.701,0.697v5.585c0,0.384,0.313,0.7,0.701,0.7h3.525h1.854h2.655c6.933,0,12.571-5.641,12.571-12.57
			v-0.142v-5.941V79.872C137.842,79.484,137.531,79.175,137.144,79.175z M130.858,101.63h-4.576c-3.802,0-6.896-3.094-6.896-6.892
			v-1.686c0-3.805,3.094-6.895,6.896-6.895h4.576v15.188V101.63z"/>
	</g>
	<circle fill="#FFFFFF" cx="192.065" cy="27.78" r="4.592"/>
	<g>
		<path fill="#FFFFFF" d="M170.02,19.783h-6.222c-1.375,0-2.487-1.115-2.487-2.487c0-1.375,1.112-2.49,2.487-2.49h6.222
			c1.375,0,2.49,1.115,2.49,2.49C172.51,18.668,171.395,19.783,170.02,19.783z"/>
		<path fill="#FFFFFF" d="M156.279,19.783h-18.974c-1.375,0-2.49-1.115-2.49-2.487c0-1.375,1.115-2.49,2.49-2.49h18.974
			c1.375,0,2.49,1.115,2.49,2.49C158.77,18.668,157.654,19.783,156.279,19.783z"/>
		<path fill="#FFFFFF" d="M170.02,29.907h-32.714c-1.375,0-2.49-1.116-2.49-2.487c0-1.375,1.115-2.49,2.49-2.49h32.714
			c1.375,0,2.49,1.115,2.49,2.49C172.51,28.791,171.395,29.907,170.02,29.907z"/>
		<path fill="#FFFFFF" d="M170.02,40.752h-16.358c-1.372,0-2.487-1.112-2.487-2.487c0-1.371,1.115-2.487,2.487-2.487h16.358
			c1.375,0,2.49,1.116,2.49,2.487C172.51,39.64,171.395,40.752,170.02,40.752z"/>
		<path fill="#FFFFFF" d="M145.485,40.752h-8.18c-1.375,0-2.49-1.112-2.49-2.487c0-1.371,1.115-2.487,2.49-2.487h8.18
			c1.375,0,2.486,1.116,2.486,2.487C147.972,39.64,146.86,40.752,145.485,40.752z"/>
	</g>
</g>
</svg>
