<?xml version="1.0" encoding="utf-8"?>
<!-- Generator: Adobe Illustrator 16.0.0, SVG Export Plug-In . SVG Version: 6.00 Build 0)  -->
<!DOCTYPE svg PUBLIC "-//W3C//DTD SVG 1.1//EN" "http://www.w3.org/Graphics/SVG/1.1/DTD/svg11.dtd">
<svg version="1.1" id="Layer_4" xmlns="http://www.w3.org/2000/svg" xmlns:xlink="http://www.w3.org/1999/xlink" x="0px" y="0px"
	 width="123.254px" height="130px" viewBox="0 0 123.254 130" enable-background="new 0 0 123.254 130" xml:space="preserve">
<g>
	<path fill="#FFFFFF" d="M88.152,0L35.102,25.996v77.006l20.396-9.979V82.155l-2.538-1.563L88.152,63.4V0z M82.978,39.612
		l-10.044-2.229V23.231l-27.58,13.515l37.624,8.175v15.246L42.232,80.071l8.088,4.976v4.747l-10.044,4.916V49.665l10.044,2.035
		v14.464l28.694-14.062l-38.738-7.725V29.224L82.978,8.298V39.612z M67.764,31.532v4.787l-6.773-1.47L67.764,31.532z M55.498,57.863
		v-5.175l7.506,1.495L55.498,57.863z"/>
	<g>
		<polygon fill="#FFFFFF" points="22.26,129.921 19.915,129.921 17.335,128.618 14.84,129.921 12.403,129.921 12.403,119.707 
			14.603,119.707 14.603,127.589 17.32,126.175 20.061,127.555 20.061,119.707 22.26,119.707 		"/>
		<polygon fill="#FFFFFF" points="92.468,130 90.116,130 87.549,128.688 85.047,130 82.609,130 82.609,119.707 84.811,119.707 
			84.811,127.65 87.528,126.226 90.26,127.617 90.26,119.707 92.468,119.707 		"/>
		<rect x="26.516" y="119.707" fill="#FFFFFF" width="2.208" height="10.256"/>
		<rect x="121.053" y="119.707" fill="#FFFFFF" width="2.201" height="10.256"/>
		<polygon fill="#FFFFFF" points="7.924,129.966 0,129.966 0,127.796 5.724,127.796 5.724,126.808 0.23,124.198 0.23,119.679 
			7.967,119.679 7.967,121.851 2.432,121.851 2.432,122.837 7.924,125.447 		"/>
		<polygon fill="#FFFFFF" points="104.669,129.966 96.744,129.966 96.744,127.796 102.46,127.796 102.46,126.808 96.967,124.198 
			96.967,119.679 104.704,119.679 104.704,121.851 99.168,121.851 99.168,122.837 104.669,125.447 		"/>
		<path fill="#FFFFFF" d="M77.785,129.962h-8.498v-10.256h8.498V129.962z M71.488,127.823h4.098v-5.98h-4.098V127.823z"/>
		<g>
			<polygon fill="#FFFFFF" points="62.867,124.9 61.264,126.556 63.335,129.962 65.987,129.962 			"/>
			<polygon fill="#FFFFFF" points="63.018,119.707 59.237,123.569 59.237,119.707 57.028,119.707 57.028,125.819 57.028,127.096 
				57.028,129.962 59.237,129.962 59.237,127.096 59.237,126.718 66.16,119.707 			"/>
		</g>
		<g>
			<polygon fill="#FFFFFF" points="114.776,124.9 113.173,126.556 115.244,129.962 117.904,129.962 			"/>
			<polygon fill="#FFFFFF" points="114.936,119.707 111.146,123.569 111.146,119.707 108.939,119.707 108.939,125.819 
				108.939,127.096 108.939,129.962 111.146,129.962 111.146,127.096 111.146,126.718 118.069,119.707 			"/>
		</g>
		<polygon fill="#FFFFFF" points="50.098,124.153 44.604,126.102 44.604,129.921 46.806,129.921 46.806,127.66 49.078,126.856 
			50.486,129.921 52.917,129.921 51.162,126.116 52.307,125.711 52.307,119.707 44.569,119.707 44.569,121.91 50.098,121.91 		"/>
		<polygon fill="#FFFFFF" points="37.711,121.885 40.694,121.888 40.694,119.679 32.979,119.679 32.979,129.962 34.647,129.962 
			34.647,129.966 40.694,129.966 40.694,127.755 35.194,127.755 35.194,126.567 37.711,125.677 37.711,123.339 35.18,124.235 
			35.18,121.885 		"/>
	</g>
</g>
</svg>
