<?xml version="1.0" encoding="utf-8"?>
<!-- Generator: Adobe Illustrator 16.0.0, SVG Export Plug-In . SVG Version: 6.00 Build 0)  -->
<!DOCTYPE svg PUBLIC "-//W3C//DTD SVG 1.1//EN" "http://www.w3.org/Graphics/SVG/1.1/DTD/svg11.dtd">
<svg version="1.1" id="Layer_4" xmlns="http://www.w3.org/2000/svg" xmlns:xlink="http://www.w3.org/1999/xlink" x="0px" y="0px"
	 width="35.094px" height="68.141px" viewBox="23.221 0 35.094 68.141" enable-background="new 23.221 0 35.094 68.141"
	 xml:space="preserve">
<polygon fill="#FFFFFF" points="56.436,3.417 56.436,40.917 32.019,53.333 35.019,55.583 35.269,60.667 24.852,65 24.852,18.417 "/>
<g>
	<path d="M58.315,0L23.221,17.197v50.943l13.493-6.603v-7.19l-1.679-1.033l23.28-11.374V0z M54.894,26.205l-6.646-1.475v-9.361
		l-18.245,8.94l24.891,5.408v10.086L27.938,52.971l5.351,3.291v3.141l-6.645,3.252V32.855l6.645,1.346v9.568l18.981-9.303
		l-25.626-5.11V19.333L54.894,5.49V26.205z M44.828,20.86v3.167l-4.48-0.973L44.828,20.86z M36.714,38.278v-3.423l4.967,0.989
		L36.714,38.278z"/>
</g>
</svg>
